<mxfile host="app.diagrams.net" modified="2024-02-24T12:44:11.177Z" agent="Mozilla/5.0 (Windows NT 10.0; Win64; x64) AppleWebKit/537.36 (KHTML, like Gecko) Chrome/121.0.0.0 Safari/537.36" etag="nGCPMiTfbHM51lFoj1SB" version="23.1.6" type="device">
  <diagram name="Seite-1" id="VaOMEB3nunMxuIia8eC9">
    <mxGraphModel dx="2821" dy="4126" grid="1" gridSize="10" guides="1" tooltips="1" connect="1" arrows="1" fold="1" page="1" pageScale="1" pageWidth="827" pageHeight="1169" math="0" shadow="0">
      <root>
        <mxCell id="0" />
        <mxCell id="1" parent="0" />
        <mxCell id="_L71OMCPzxAsusVBg9Zg-1" value="&lt;h1&gt;Ein&amp;nbsp;&lt;b style=&quot;box-sizing: inherit; color: rgb(29, 28, 29); font-family: Slack-Lato, Slack-Fractions, appleLogo, sans-serif; font-size: 15px; font-variant-ligatures: common-ligatures; background-color: rgb(248, 248, 248);&quot; data-stringify-type=&quot;bold&quot;&gt;Museum&lt;/b&gt;&lt;span style=&quot;color: rgb(29, 28, 29); font-family: Slack-Lato, Slack-Fractions, appleLogo, sans-serif; font-size: 15px; font-variant-ligatures: common-ligatures; font-weight: 400; background-color: rgb(248, 248, 248);&quot;&gt;&amp;nbsp;besteht aus Gängen und Ausstellungsräume. Jeder&amp;nbsp;&lt;/span&gt;&lt;b style=&quot;box-sizing: inherit; color: rgb(29, 28, 29); font-family: Slack-Lato, Slack-Fractions, appleLogo, sans-serif; font-size: 15px; font-variant-ligatures: common-ligatures; background-color: rgb(248, 248, 248);&quot; data-stringify-type=&quot;bold&quot;&gt;Gang&lt;/b&gt;&lt;span style=&quot;color: rgb(29, 28, 29); font-family: Slack-Lato, Slack-Fractions, appleLogo, sans-serif; font-size: 15px; font-variant-ligatures: common-ligatures; font-weight: 400; background-color: rgb(248, 248, 248);&quot;&gt;&amp;nbsp;und&amp;nbsp;&lt;/span&gt;&lt;b style=&quot;box-sizing: inherit; color: rgb(29, 28, 29); font-family: Slack-Lato, Slack-Fractions, appleLogo, sans-serif; font-size: 15px; font-variant-ligatures: common-ligatures; background-color: rgb(248, 248, 248);&quot; data-stringify-type=&quot;bold&quot;&gt;Ausstellungsraum&lt;/b&gt;&lt;span style=&quot;color: rgb(29, 28, 29); font-family: Slack-Lato, Slack-Fractions, appleLogo, sans-serif; font-size: 15px; font-variant-ligatures: common-ligatures; font-weight: 400; background-color: rgb(248, 248, 248);&quot;&gt;&amp;nbsp;kennt über die benachbarten Räume. In jedem Ausstellungsraum sind&amp;nbsp;&lt;/span&gt;&lt;b style=&quot;box-sizing: inherit; color: rgb(29, 28, 29); font-family: Slack-Lato, Slack-Fractions, appleLogo, sans-serif; font-size: 15px; font-variant-ligatures: common-ligatures; background-color: rgb(248, 248, 248);&quot; data-stringify-type=&quot;bold&quot;&gt;Kunststücke&lt;/b&gt;&lt;span style=&quot;color: rgb(29, 28, 29); font-family: Slack-Lato, Slack-Fractions, appleLogo, sans-serif; font-size: 15px; font-variant-ligatures: common-ligatures; font-weight: 400; background-color: rgb(248, 248, 248);&quot;&gt;&amp;nbsp;ausgestellt. Ein Kunststück kann ein Zeichen, Gemälde, Statue, oder ein Kunstobjekt sein. Es gibt einen besonderen Gang im Museum, der als Eingang für Gäste dient. Ab dem Zeitpunkt der Öffnung dürfen Gäste ins Museum kommen. Ein Gast in einem Gang wählt einen zufälligen Raum, den er betritt. Falls sich ein Gast in einem Ausstellungsraum befindet, kann er ein zufälliges Kunststück beobachten oder in den nächsten Raum gehen. Falls ein Gast nach einer Zeit müde wird, geht er nach Hause. Zwischen den Gästen sind einige mit bösen Absichten. Ein&amp;nbsp;&lt;/span&gt;&lt;b style=&quot;box-sizing: inherit; color: rgb(29, 28, 29); font-family: Slack-Lato, Slack-Fractions, appleLogo, sans-serif; font-size: 15px; font-variant-ligatures: common-ligatures; background-color: rgb(248, 248, 248);&quot; data-stringify-type=&quot;bold&quot;&gt;Dieb&lt;/b&gt;&lt;span style=&quot;color: rgb(29, 28, 29); font-family: Slack-Lato, Slack-Fractions, appleLogo, sans-serif; font-size: 15px; font-variant-ligatures: common-ligatures; font-weight: 400; background-color: rgb(248, 248, 248);&quot;&gt;&amp;nbsp;stiehlt den beobachteten Gegenstand, falls er sich allein in einem Raum befindet. Um die Diebstähle zu verhindern sind einige&amp;nbsp;&lt;/span&gt;&lt;b style=&quot;box-sizing: inherit; color: rgb(29, 28, 29); font-family: Slack-Lato, Slack-Fractions, appleLogo, sans-serif; font-size: 15px; font-variant-ligatures: common-ligatures; background-color: rgb(248, 248, 248);&quot; data-stringify-type=&quot;bold&quot;&gt;Wächter&lt;/b&gt;&lt;span style=&quot;color: rgb(29, 28, 29); font-family: Slack-Lato, Slack-Fractions, appleLogo, sans-serif; font-size: 15px; font-variant-ligatures: common-ligatures; font-weight: 400; background-color: rgb(248, 248, 248);&quot;&gt;&amp;nbsp;im Museum unterwegs. Die Wächter beobachten keine Kunstobjekte, sondern sie versuchen sich in Räumen zu befinden in denen auch anderen Gäste präsent sind.&lt;/span&gt;&lt;br&gt;&lt;/h1&gt;" style="text;html=1;strokeColor=none;fillColor=none;spacing=5;spacingTop=-20;whiteSpace=wrap;overflow=hidden;rounded=0;rotation=0;" parent="1" vertex="1">
          <mxGeometry x="-1440" y="-3380" width="1200" height="250" as="geometry" />
        </mxCell>
        <mxCell id="_L71OMCPzxAsusVBg9Zg-3" value="Museum" style="swimlane;fontStyle=1;align=center;verticalAlign=top;childLayout=stackLayout;horizontal=1;startSize=30;horizontalStack=0;resizeParent=1;resizeParentMax=0;resizeLast=0;collapsible=1;marginBottom=0;whiteSpace=wrap;html=1;" parent="1" vertex="1">
          <mxGeometry x="-1203" y="-3048" width="160" height="114" as="geometry" />
        </mxCell>
        <mxCell id="_L71OMCPzxAsusVBg9Zg-4" value="- Name: String&lt;br&gt;- OeffnungsZeit: int&lt;br&gt;- SchliessZeit: int" style="text;strokeColor=none;fillColor=none;align=left;verticalAlign=top;spacingLeft=4;spacingRight=4;overflow=hidden;rotatable=0;points=[[0,0.5],[1,0.5]];portConstraint=eastwest;whiteSpace=wrap;html=1;" parent="_L71OMCPzxAsusVBg9Zg-3" vertex="1">
          <mxGeometry y="30" width="160" height="50" as="geometry" />
        </mxCell>
        <mxCell id="_L71OMCPzxAsusVBg9Zg-5" value="" style="line;strokeWidth=1;fillColor=none;align=left;verticalAlign=middle;spacingTop=-1;spacingLeft=3;spacingRight=3;rotatable=0;labelPosition=right;points=[];portConstraint=eastwest;strokeColor=inherit;" parent="_L71OMCPzxAsusVBg9Zg-3" vertex="1">
          <mxGeometry y="80" width="160" height="8" as="geometry" />
        </mxCell>
        <mxCell id="_L71OMCPzxAsusVBg9Zg-6" value="+ method(type): type" style="text;strokeColor=none;fillColor=none;align=left;verticalAlign=top;spacingLeft=4;spacingRight=4;overflow=hidden;rotatable=0;points=[[0,0.5],[1,0.5]];portConstraint=eastwest;whiteSpace=wrap;html=1;" parent="_L71OMCPzxAsusVBg9Zg-3" vertex="1">
          <mxGeometry y="88" width="160" height="26" as="geometry" />
        </mxCell>
        <mxCell id="_L71OMCPzxAsusVBg9Zg-7" value="Gang" style="swimlane;fontStyle=1;align=center;verticalAlign=top;childLayout=stackLayout;horizontal=1;startSize=26;horizontalStack=0;resizeParent=1;resizeParentMax=0;resizeLast=0;collapsible=1;marginBottom=0;whiteSpace=wrap;html=1;" parent="1" vertex="1">
          <mxGeometry x="-1103" y="-2567" width="160" height="86" as="geometry" />
        </mxCell>
        <mxCell id="_L71OMCPzxAsusVBg9Zg-8" value="+ field: type" style="text;strokeColor=none;fillColor=none;align=left;verticalAlign=top;spacingLeft=4;spacingRight=4;overflow=hidden;rotatable=0;points=[[0,0.5],[1,0.5]];portConstraint=eastwest;whiteSpace=wrap;html=1;" parent="_L71OMCPzxAsusVBg9Zg-7" vertex="1">
          <mxGeometry y="26" width="160" height="26" as="geometry" />
        </mxCell>
        <mxCell id="_L71OMCPzxAsusVBg9Zg-9" value="" style="line;strokeWidth=1;fillColor=none;align=left;verticalAlign=middle;spacingTop=-1;spacingLeft=3;spacingRight=3;rotatable=0;labelPosition=right;points=[];portConstraint=eastwest;strokeColor=inherit;" parent="_L71OMCPzxAsusVBg9Zg-7" vertex="1">
          <mxGeometry y="52" width="160" height="8" as="geometry" />
        </mxCell>
        <mxCell id="_L71OMCPzxAsusVBg9Zg-10" value="+ method(type): type" style="text;strokeColor=none;fillColor=none;align=left;verticalAlign=top;spacingLeft=4;spacingRight=4;overflow=hidden;rotatable=0;points=[[0,0.5],[1,0.5]];portConstraint=eastwest;whiteSpace=wrap;html=1;" parent="_L71OMCPzxAsusVBg9Zg-7" vertex="1">
          <mxGeometry y="60" width="160" height="26" as="geometry" />
        </mxCell>
        <mxCell id="_L71OMCPzxAsusVBg9Zg-11" value="Austellungsraum" style="swimlane;fontStyle=1;align=center;verticalAlign=top;childLayout=stackLayout;horizontal=1;startSize=26;horizontalStack=0;resizeParent=1;resizeParentMax=0;resizeLast=0;collapsible=1;marginBottom=0;whiteSpace=wrap;html=1;" parent="1" vertex="1">
          <mxGeometry x="-1303" y="-2567" width="160" height="86" as="geometry" />
        </mxCell>
        <mxCell id="_L71OMCPzxAsusVBg9Zg-12" value="+ field: type" style="text;strokeColor=none;fillColor=none;align=left;verticalAlign=top;spacingLeft=4;spacingRight=4;overflow=hidden;rotatable=0;points=[[0,0.5],[1,0.5]];portConstraint=eastwest;whiteSpace=wrap;html=1;" parent="_L71OMCPzxAsusVBg9Zg-11" vertex="1">
          <mxGeometry y="26" width="160" height="26" as="geometry" />
        </mxCell>
        <mxCell id="_L71OMCPzxAsusVBg9Zg-13" value="" style="line;strokeWidth=1;fillColor=none;align=left;verticalAlign=middle;spacingTop=-1;spacingLeft=3;spacingRight=3;rotatable=0;labelPosition=right;points=[];portConstraint=eastwest;strokeColor=inherit;" parent="_L71OMCPzxAsusVBg9Zg-11" vertex="1">
          <mxGeometry y="52" width="160" height="8" as="geometry" />
        </mxCell>
        <mxCell id="_L71OMCPzxAsusVBg9Zg-14" value="+ method(type): type" style="text;strokeColor=none;fillColor=none;align=left;verticalAlign=top;spacingLeft=4;spacingRight=4;overflow=hidden;rotatable=0;points=[[0,0.5],[1,0.5]];portConstraint=eastwest;whiteSpace=wrap;html=1;" parent="_L71OMCPzxAsusVBg9Zg-11" vertex="1">
          <mxGeometry y="60" width="160" height="26" as="geometry" />
        </mxCell>
        <mxCell id="_L71OMCPzxAsusVBg9Zg-15" value="Kunststück" style="swimlane;fontStyle=1;align=center;verticalAlign=top;childLayout=stackLayout;horizontal=1;startSize=26;horizontalStack=0;resizeParent=1;resizeParentMax=0;resizeLast=0;collapsible=1;marginBottom=0;whiteSpace=wrap;html=1;" parent="1" vertex="1">
          <mxGeometry x="-1303" y="-2407" width="160" height="86" as="geometry" />
        </mxCell>
        <mxCell id="_L71OMCPzxAsusVBg9Zg-16" value="- Name: String" style="text;strokeColor=none;fillColor=none;align=left;verticalAlign=top;spacingLeft=4;spacingRight=4;overflow=hidden;rotatable=0;points=[[0,0.5],[1,0.5]];portConstraint=eastwest;whiteSpace=wrap;html=1;" parent="_L71OMCPzxAsusVBg9Zg-15" vertex="1">
          <mxGeometry y="26" width="160" height="26" as="geometry" />
        </mxCell>
        <mxCell id="_L71OMCPzxAsusVBg9Zg-17" value="" style="line;strokeWidth=1;fillColor=none;align=left;verticalAlign=middle;spacingTop=-1;spacingLeft=3;spacingRight=3;rotatable=0;labelPosition=right;points=[];portConstraint=eastwest;strokeColor=inherit;" parent="_L71OMCPzxAsusVBg9Zg-15" vertex="1">
          <mxGeometry y="52" width="160" height="8" as="geometry" />
        </mxCell>
        <mxCell id="_L71OMCPzxAsusVBg9Zg-18" value="+ method(type): type" style="text;strokeColor=none;fillColor=none;align=left;verticalAlign=top;spacingLeft=4;spacingRight=4;overflow=hidden;rotatable=0;points=[[0,0.5],[1,0.5]];portConstraint=eastwest;whiteSpace=wrap;html=1;" parent="_L71OMCPzxAsusVBg9Zg-15" vertex="1">
          <mxGeometry y="60" width="160" height="26" as="geometry" />
        </mxCell>
        <mxCell id="_L71OMCPzxAsusVBg9Zg-19" value="Gast" style="swimlane;fontStyle=1;align=center;verticalAlign=top;childLayout=stackLayout;horizontal=1;startSize=26;horizontalStack=0;resizeParent=1;resizeParentMax=0;resizeLast=0;collapsible=1;marginBottom=0;whiteSpace=wrap;html=1;" parent="1" vertex="1">
          <mxGeometry x="-853" y="-2726" width="190" height="88" as="geometry" />
        </mxCell>
        <mxCell id="_L71OMCPzxAsusVBg9Zg-20" value="+ field: type" style="text;strokeColor=none;fillColor=none;align=left;verticalAlign=top;spacingLeft=4;spacingRight=4;overflow=hidden;rotatable=0;points=[[0,0.5],[1,0.5]];portConstraint=eastwest;whiteSpace=wrap;html=1;" parent="_L71OMCPzxAsusVBg9Zg-19" vertex="1">
          <mxGeometry y="26" width="190" height="26" as="geometry" />
        </mxCell>
        <mxCell id="_L71OMCPzxAsusVBg9Zg-21" value="" style="line;strokeWidth=1;fillColor=none;align=left;verticalAlign=middle;spacingTop=-1;spacingLeft=3;spacingRight=3;rotatable=0;labelPosition=right;points=[];portConstraint=eastwest;strokeColor=inherit;" parent="_L71OMCPzxAsusVBg9Zg-19" vertex="1">
          <mxGeometry y="52" width="190" height="10" as="geometry" />
        </mxCell>
        <mxCell id="_L71OMCPzxAsusVBg9Zg-22" value="+ method(type): type" style="text;strokeColor=none;fillColor=none;align=left;verticalAlign=top;spacingLeft=4;spacingRight=4;overflow=hidden;rotatable=0;points=[[0,0.5],[1,0.5]];portConstraint=eastwest;whiteSpace=wrap;html=1;" parent="_L71OMCPzxAsusVBg9Zg-19" vertex="1">
          <mxGeometry y="62" width="190" height="26" as="geometry" />
        </mxCell>
        <mxCell id="_L71OMCPzxAsusVBg9Zg-23" value="Dieb" style="swimlane;fontStyle=1;align=center;verticalAlign=top;childLayout=stackLayout;horizontal=1;startSize=26;horizontalStack=0;resizeParent=1;resizeParentMax=0;resizeLast=0;collapsible=1;marginBottom=0;whiteSpace=wrap;html=1;" parent="1" vertex="1">
          <mxGeometry x="-643" y="-2726" width="160" height="86" as="geometry" />
        </mxCell>
        <mxCell id="_L71OMCPzxAsusVBg9Zg-24" value="+ field: type" style="text;strokeColor=none;fillColor=none;align=left;verticalAlign=top;spacingLeft=4;spacingRight=4;overflow=hidden;rotatable=0;points=[[0,0.5],[1,0.5]];portConstraint=eastwest;whiteSpace=wrap;html=1;" parent="_L71OMCPzxAsusVBg9Zg-23" vertex="1">
          <mxGeometry y="26" width="160" height="26" as="geometry" />
        </mxCell>
        <mxCell id="_L71OMCPzxAsusVBg9Zg-25" value="" style="line;strokeWidth=1;fillColor=none;align=left;verticalAlign=middle;spacingTop=-1;spacingLeft=3;spacingRight=3;rotatable=0;labelPosition=right;points=[];portConstraint=eastwest;strokeColor=inherit;" parent="_L71OMCPzxAsusVBg9Zg-23" vertex="1">
          <mxGeometry y="52" width="160" height="8" as="geometry" />
        </mxCell>
        <mxCell id="_L71OMCPzxAsusVBg9Zg-26" value="+ klauen(Kunststück): void" style="text;strokeColor=none;fillColor=none;align=left;verticalAlign=top;spacingLeft=4;spacingRight=4;overflow=hidden;rotatable=0;points=[[0,0.5],[1,0.5]];portConstraint=eastwest;whiteSpace=wrap;html=1;" parent="_L71OMCPzxAsusVBg9Zg-23" vertex="1">
          <mxGeometry y="60" width="160" height="26" as="geometry" />
        </mxCell>
        <mxCell id="_L71OMCPzxAsusVBg9Zg-27" value="Wächter" style="swimlane;fontStyle=1;align=center;verticalAlign=top;childLayout=stackLayout;horizontal=1;startSize=26;horizontalStack=0;resizeParent=1;resizeParentMax=0;resizeLast=0;collapsible=1;marginBottom=0;whiteSpace=wrap;html=1;" parent="1" vertex="1">
          <mxGeometry x="-463" y="-2726" width="160" height="86" as="geometry" />
        </mxCell>
        <mxCell id="_L71OMCPzxAsusVBg9Zg-28" value="+ field: type" style="text;strokeColor=none;fillColor=none;align=left;verticalAlign=top;spacingLeft=4;spacingRight=4;overflow=hidden;rotatable=0;points=[[0,0.5],[1,0.5]];portConstraint=eastwest;whiteSpace=wrap;html=1;" parent="_L71OMCPzxAsusVBg9Zg-27" vertex="1">
          <mxGeometry y="26" width="160" height="26" as="geometry" />
        </mxCell>
        <mxCell id="_L71OMCPzxAsusVBg9Zg-29" value="" style="line;strokeWidth=1;fillColor=none;align=left;verticalAlign=middle;spacingTop=-1;spacingLeft=3;spacingRight=3;rotatable=0;labelPosition=right;points=[];portConstraint=eastwest;strokeColor=inherit;" parent="_L71OMCPzxAsusVBg9Zg-27" vertex="1">
          <mxGeometry y="52" width="160" height="8" as="geometry" />
        </mxCell>
        <mxCell id="_L71OMCPzxAsusVBg9Zg-30" value="+ method(type): type" style="text;strokeColor=none;fillColor=none;align=left;verticalAlign=top;spacingLeft=4;spacingRight=4;overflow=hidden;rotatable=0;points=[[0,0.5],[1,0.5]];portConstraint=eastwest;whiteSpace=wrap;html=1;" parent="_L71OMCPzxAsusVBg9Zg-27" vertex="1">
          <mxGeometry y="60" width="160" height="26" as="geometry" />
        </mxCell>
        <mxCell id="_L71OMCPzxAsusVBg9Zg-49" value="&amp;lt;abstrakt&amp;gt; Person" style="swimlane;fontStyle=1;align=center;verticalAlign=top;childLayout=stackLayout;horizontal=1;startSize=26;horizontalStack=0;resizeParent=1;resizeParentMax=0;resizeLast=0;collapsible=1;marginBottom=0;whiteSpace=wrap;html=1;" parent="1" vertex="1">
          <mxGeometry x="-643" y="-2924" width="160" height="110" as="geometry" />
        </mxCell>
        <mxCell id="_L71OMCPzxAsusVBg9Zg-50" value="- Name: String" style="text;strokeColor=none;fillColor=none;align=left;verticalAlign=top;spacingLeft=4;spacingRight=4;overflow=hidden;rotatable=0;points=[[0,0.5],[1,0.5]];portConstraint=eastwest;whiteSpace=wrap;html=1;" parent="_L71OMCPzxAsusVBg9Zg-49" vertex="1">
          <mxGeometry y="26" width="160" height="26" as="geometry" />
        </mxCell>
        <mxCell id="_L71OMCPzxAsusVBg9Zg-51" value="" style="line;strokeWidth=1;fillColor=none;align=left;verticalAlign=middle;spacingTop=-1;spacingLeft=3;spacingRight=3;rotatable=0;labelPosition=right;points=[];portConstraint=eastwest;strokeColor=inherit;" parent="_L71OMCPzxAsusVBg9Zg-49" vertex="1">
          <mxGeometry y="52" width="160" height="8" as="geometry" />
        </mxCell>
        <mxCell id="_L71OMCPzxAsusVBg9Zg-52" value="+ bewegen(): void" style="text;strokeColor=none;fillColor=none;align=left;verticalAlign=top;spacingLeft=4;spacingRight=4;overflow=hidden;rotatable=0;points=[[0,0.5],[1,0.5]];portConstraint=eastwest;whiteSpace=wrap;html=1;" parent="_L71OMCPzxAsusVBg9Zg-49" vertex="1">
          <mxGeometry y="60" width="160" height="50" as="geometry" />
        </mxCell>
        <mxCell id="_L71OMCPzxAsusVBg9Zg-55" value="" style="endArrow=none;html=1;rounded=0;edgeStyle=orthogonalEdgeStyle;exitX=0.5;exitY=0;exitDx=0;exitDy=0;entryX=0.5;entryY=1;entryDx=0;entryDy=0;" parent="1" source="_L71OMCPzxAsusVBg9Zg-19" edge="1">
          <mxGeometry width="50" height="50" relative="1" as="geometry">
            <mxPoint x="-643" y="-2750" as="sourcePoint" />
            <mxPoint x="-563" y="-2776" as="targetPoint" />
            <Array as="points">
              <mxPoint x="-743" y="-2766" />
              <mxPoint x="-563" y="-2766" />
            </Array>
          </mxGeometry>
        </mxCell>
        <mxCell id="_L71OMCPzxAsusVBg9Zg-59" value="" style="endArrow=none;html=1;rounded=0;edgeStyle=orthogonalEdgeStyle;exitX=0.5;exitY=1;exitDx=0;exitDy=0;entryX=0.5;entryY=0;entryDx=0;entryDy=0;" parent="1" target="_L71OMCPzxAsusVBg9Zg-27" edge="1">
          <mxGeometry width="50" height="50" relative="1" as="geometry">
            <mxPoint x="-563" y="-2776" as="sourcePoint" />
            <mxPoint x="-403" y="-2806" as="targetPoint" />
            <Array as="points">
              <mxPoint x="-563" y="-2766" />
              <mxPoint x="-383" y="-2766" />
            </Array>
          </mxGeometry>
        </mxCell>
        <mxCell id="_L71OMCPzxAsusVBg9Zg-60" value="" style="endArrow=block;html=1;rounded=0;exitX=0.5;exitY=0;exitDx=0;exitDy=0;entryX=0.502;entryY=1.028;entryDx=0;entryDy=0;edgeStyle=orthogonalEdgeStyle;entryPerimeter=0;endFill=0;" parent="1" source="_L71OMCPzxAsusVBg9Zg-23" target="_L71OMCPzxAsusVBg9Zg-52" edge="1">
          <mxGeometry width="50" height="50" relative="1" as="geometry">
            <mxPoint x="-633" y="-2706" as="sourcePoint" />
            <mxPoint x="-563" y="-2776" as="targetPoint" />
            <Array as="points">
              <mxPoint x="-563" y="-2811" />
            </Array>
          </mxGeometry>
        </mxCell>
        <mxCell id="_L71OMCPzxAsusVBg9Zg-61" value="&amp;lt;abstrakt&amp;gt; Raum" style="swimlane;fontStyle=1;align=center;verticalAlign=top;childLayout=stackLayout;horizontal=1;startSize=26;horizontalStack=0;resizeParent=1;resizeParentMax=0;resizeLast=0;collapsible=1;marginBottom=0;whiteSpace=wrap;html=1;" parent="1" vertex="1">
          <mxGeometry x="-1203" y="-2867" width="160" height="94" as="geometry">
            <mxRectangle x="-1020" y="-2020" width="100" height="40" as="alternateBounds" />
          </mxGeometry>
        </mxCell>
        <mxCell id="_L71OMCPzxAsusVBg9Zg-62" value="- Name: String" style="text;strokeColor=none;fillColor=none;align=left;verticalAlign=top;spacingLeft=4;spacingRight=4;overflow=hidden;rotatable=0;points=[[0,0.5],[1,0.5]];portConstraint=eastwest;whiteSpace=wrap;html=1;" parent="_L71OMCPzxAsusVBg9Zg-61" vertex="1">
          <mxGeometry y="26" width="160" height="24" as="geometry" />
        </mxCell>
        <mxCell id="_L71OMCPzxAsusVBg9Zg-63" value="" style="line;strokeWidth=1;fillColor=none;align=left;verticalAlign=middle;spacingTop=-1;spacingLeft=3;spacingRight=3;rotatable=0;labelPosition=right;points=[];portConstraint=eastwest;strokeColor=inherit;" parent="_L71OMCPzxAsusVBg9Zg-61" vertex="1">
          <mxGeometry y="50" width="160" height="18" as="geometry" />
        </mxCell>
        <mxCell id="_L71OMCPzxAsusVBg9Zg-64" value="+ method(type): type" style="text;strokeColor=none;fillColor=none;align=left;verticalAlign=top;spacingLeft=4;spacingRight=4;overflow=hidden;rotatable=0;points=[[0,0.5],[1,0.5]];portConstraint=eastwest;whiteSpace=wrap;html=1;" parent="_L71OMCPzxAsusVBg9Zg-61" vertex="1">
          <mxGeometry y="68" width="160" height="26" as="geometry" />
        </mxCell>
        <mxCell id="7oO15L-JbmcVKD_Apaax-13" style="edgeStyle=orthogonalEdgeStyle;rounded=0;orthogonalLoop=1;jettySize=auto;html=1;entryX=0.004;entryY=0.884;entryDx=0;entryDy=0;entryPerimeter=0;startArrow=none;startFill=0;endArrow=none;endFill=0;" edge="1" parent="_L71OMCPzxAsusVBg9Zg-61" source="_L71OMCPzxAsusVBg9Zg-61" target="_L71OMCPzxAsusVBg9Zg-62">
          <mxGeometry relative="1" as="geometry" />
        </mxCell>
        <mxCell id="_L71OMCPzxAsusVBg9Zg-65" value="" style="endArrow=blockThin;html=1;rounded=0;edgeStyle=orthogonalEdgeStyle;entryX=0.509;entryY=1;entryDx=0;entryDy=0;entryPerimeter=0;exitX=0.5;exitY=0;exitDx=0;exitDy=0;endFill=0;" parent="1" source="_L71OMCPzxAsusVBg9Zg-11" target="_L71OMCPzxAsusVBg9Zg-64" edge="1">
          <mxGeometry width="50" height="50" relative="1" as="geometry">
            <mxPoint x="-1173" y="-2707" as="sourcePoint" />
            <mxPoint x="-1123" y="-2757" as="targetPoint" />
          </mxGeometry>
        </mxCell>
        <mxCell id="_L71OMCPzxAsusVBg9Zg-66" value="" style="endArrow=blockThin;html=1;rounded=0;edgeStyle=orthogonalEdgeStyle;entryX=0.51;entryY=1.009;entryDx=0;entryDy=0;entryPerimeter=0;exitX=0.5;exitY=0;exitDx=0;exitDy=0;endFill=0;" parent="1" source="_L71OMCPzxAsusVBg9Zg-7" target="_L71OMCPzxAsusVBg9Zg-64" edge="1">
          <mxGeometry width="50" height="50" relative="1" as="geometry">
            <mxPoint x="-1213" y="-2707" as="sourcePoint" />
            <mxPoint x="-1163" y="-2757" as="targetPoint" />
          </mxGeometry>
        </mxCell>
        <mxCell id="_L71OMCPzxAsusVBg9Zg-70" value="&lt;div style=&quot;&quot;&gt;&lt;span style=&quot;background-color: initial;&quot;&gt;&lt;font style=&quot;font-size: 10px;&quot;&gt;Kunststücke sind ausschließlich in Ausstellungsräumen vorhanden&lt;/font&gt;&lt;/span&gt;&lt;/div&gt;" style="text;html=1;strokeColor=none;fillColor=none;align=left;verticalAlign=middle;whiteSpace=wrap;rounded=0;" parent="1" vertex="1">
          <mxGeometry x="-1328" y="-2473.5" width="90" height="60" as="geometry" />
        </mxCell>
        <mxCell id="_L71OMCPzxAsusVBg9Zg-71" value="1" style="text;html=1;strokeColor=none;fillColor=none;align=center;verticalAlign=middle;whiteSpace=wrap;rounded=0;" parent="1" vertex="1">
          <mxGeometry x="-1138" y="-2937" width="60" height="30" as="geometry" />
        </mxCell>
        <mxCell id="_L71OMCPzxAsusVBg9Zg-72" value="*" style="text;html=1;strokeColor=none;fillColor=none;align=center;verticalAlign=middle;whiteSpace=wrap;rounded=0;" parent="1" vertex="1">
          <mxGeometry x="-1138" y="-2887" width="60" height="30" as="geometry" />
        </mxCell>
        <mxCell id="_L71OMCPzxAsusVBg9Zg-73" value="1" style="text;html=1;strokeColor=none;fillColor=none;align=center;verticalAlign=middle;whiteSpace=wrap;rounded=0;" parent="1" vertex="1">
          <mxGeometry x="-1236" y="-2482" width="60" height="30" as="geometry" />
        </mxCell>
        <mxCell id="_L71OMCPzxAsusVBg9Zg-74" value="*" style="text;html=1;strokeColor=none;fillColor=none;align=center;verticalAlign=middle;whiteSpace=wrap;rounded=0;" parent="1" vertex="1">
          <mxGeometry x="-1243" y="-2427" width="60" height="30" as="geometry" />
        </mxCell>
        <mxCell id="_L71OMCPzxAsusVBg9Zg-75" value="1" style="text;html=1;strokeColor=none;fillColor=none;align=center;verticalAlign=middle;whiteSpace=wrap;rounded=0;" parent="1" vertex="1">
          <mxGeometry x="-1043" y="-2835" width="60" height="30" as="geometry" />
        </mxCell>
        <mxCell id="_L71OMCPzxAsusVBg9Zg-76" value="1" style="text;html=1;strokeColor=none;fillColor=none;align=center;verticalAlign=middle;whiteSpace=wrap;rounded=0;" parent="1" vertex="1">
          <mxGeometry x="-1060" y="-3038" width="60" height="30" as="geometry" />
        </mxCell>
        <mxCell id="_L71OMCPzxAsusVBg9Zg-78" value="*" style="text;html=1;strokeColor=none;fillColor=none;align=center;verticalAlign=middle;whiteSpace=wrap;rounded=0;" parent="1" vertex="1">
          <mxGeometry x="-683" y="-2907" width="60" height="30" as="geometry" />
        </mxCell>
        <mxCell id="_L71OMCPzxAsusVBg9Zg-80" value="" style="endArrow=diamondThin;endFill=1;endSize=24;html=1;rounded=0;entryX=0.998;entryY=0.549;entryDx=0;entryDy=0;entryPerimeter=0;edgeStyle=orthogonalEdgeStyle;exitX=0;exitY=0.5;exitDx=0;exitDy=0;startArrow=none;startFill=0;" parent="1" source="_L71OMCPzxAsusVBg9Zg-50" target="_L71OMCPzxAsusVBg9Zg-4" edge="1">
          <mxGeometry width="160" relative="1" as="geometry">
            <mxPoint x="-703" y="-2917" as="sourcePoint" />
            <mxPoint x="-753" y="-3007" as="targetPoint" />
          </mxGeometry>
        </mxCell>
        <mxCell id="_L71OMCPzxAsusVBg9Zg-82" value="" style="endArrow=none;endFill=0;endSize=24;html=1;rounded=0;edgeStyle=orthogonalEdgeStyle;entryX=1;entryY=0.556;entryDx=0;entryDy=0;startArrow=none;startFill=0;strokeWidth=1;exitX=0;exitY=0.5;exitDx=0;exitDy=0;entryPerimeter=0;" parent="1" edge="1">
          <mxGeometry width="160" relative="1" as="geometry">
            <mxPoint x="-643" y="-2883" as="sourcePoint" />
            <mxPoint x="-1043" y="-2806.992" as="targetPoint" />
            <Array as="points">
              <mxPoint x="-843" y="-2883" />
              <mxPoint x="-843" y="-2807" />
            </Array>
          </mxGeometry>
        </mxCell>
        <mxCell id="_L71OMCPzxAsusVBg9Zg-85" value="&lt;font style=&quot;font-size: 10px;&quot;&gt;Besucher können über den Gang zu den Ausstellungsräumen als auch von Raum zu Raum bewegen.&lt;/font&gt;" style="text;html=1;strokeColor=none;fillColor=none;align=left;verticalAlign=middle;whiteSpace=wrap;rounded=0;" parent="1" vertex="1">
          <mxGeometry x="-1263" y="-2753" width="130" height="70" as="geometry" />
        </mxCell>
        <mxCell id="_L71OMCPzxAsusVBg9Zg-86" value="" style="endArrow=diamondThin;endFill=1;endSize=24;html=1;rounded=0;exitX=0.323;exitY=-0.012;exitDx=0;exitDy=0;exitPerimeter=0;entryX=0.488;entryY=0.995;entryDx=0;entryDy=0;entryPerimeter=0;" parent="1" target="_L71OMCPzxAsusVBg9Zg-6" edge="1">
          <mxGeometry width="160" relative="1" as="geometry">
            <mxPoint x="-1125.32" y="-2868.128" as="sourcePoint" />
            <mxPoint x="-1131.56" y="-2915.05" as="targetPoint" />
          </mxGeometry>
        </mxCell>
        <mxCell id="_L71OMCPzxAsusVBg9Zg-87" value="" style="endArrow=diamondThin;endFill=1;endSize=24;html=1;rounded=0;entryX=0.497;entryY=1.037;entryDx=0;entryDy=0;entryPerimeter=0;exitX=0.493;exitY=0;exitDx=0;exitDy=0;exitPerimeter=0;" parent="1" edge="1">
          <mxGeometry width="160" relative="1" as="geometry">
            <mxPoint x="-1223.12" y="-2407" as="sourcePoint" />
            <mxPoint x="-1222.48" y="-2480.038" as="targetPoint" />
          </mxGeometry>
        </mxCell>
        <mxCell id="7oO15L-JbmcVKD_Apaax-6" value="&amp;lt;interface&amp;gt;&lt;br&gt;aktivitaeten" style="swimlane;fontStyle=1;align=center;verticalAlign=top;childLayout=stackLayout;horizontal=1;startSize=42;horizontalStack=0;resizeParent=1;resizeParentMax=0;resizeLast=0;collapsible=1;marginBottom=0;whiteSpace=wrap;html=1;" vertex="1" parent="1">
          <mxGeometry x="-430" y="-2922" width="160" height="144" as="geometry" />
        </mxCell>
        <mxCell id="7oO15L-JbmcVKD_Apaax-7" value="- Name: String" style="text;strokeColor=none;fillColor=none;align=left;verticalAlign=top;spacingLeft=4;spacingRight=4;overflow=hidden;rotatable=0;points=[[0,0.5],[1,0.5]];portConstraint=eastwest;whiteSpace=wrap;html=1;" vertex="1" parent="7oO15L-JbmcVKD_Apaax-6">
          <mxGeometry y="42" width="160" height="26" as="geometry" />
        </mxCell>
        <mxCell id="7oO15L-JbmcVKD_Apaax-8" value="" style="line;strokeWidth=1;fillColor=none;align=left;verticalAlign=middle;spacingTop=-1;spacingLeft=3;spacingRight=3;rotatable=0;labelPosition=right;points=[];portConstraint=eastwest;strokeColor=inherit;" vertex="1" parent="7oO15L-JbmcVKD_Apaax-6">
          <mxGeometry y="68" width="160" height="8" as="geometry" />
        </mxCell>
        <mxCell id="7oO15L-JbmcVKD_Apaax-9" value="+ beobachten(): void" style="text;strokeColor=none;fillColor=none;align=left;verticalAlign=top;spacingLeft=4;spacingRight=4;overflow=hidden;rotatable=0;points=[[0,0.5],[1,0.5]];portConstraint=eastwest;whiteSpace=wrap;html=1;" vertex="1" parent="7oO15L-JbmcVKD_Apaax-6">
          <mxGeometry y="76" width="160" height="34" as="geometry" />
        </mxCell>
        <mxCell id="7oO15L-JbmcVKD_Apaax-10" value="+ nachHauseGehen(): void" style="text;strokeColor=none;fillColor=none;align=left;verticalAlign=top;spacingLeft=4;spacingRight=4;overflow=hidden;rotatable=0;points=[[0,0.5],[1,0.5]];portConstraint=eastwest;whiteSpace=wrap;html=1;" vertex="1" parent="7oO15L-JbmcVKD_Apaax-6">
          <mxGeometry y="110" width="160" height="34" as="geometry" />
        </mxCell>
        <mxCell id="7oO15L-JbmcVKD_Apaax-11" style="edgeStyle=orthogonalEdgeStyle;rounded=0;orthogonalLoop=1;jettySize=auto;html=1;entryX=0.898;entryY=-0.009;entryDx=0;entryDy=0;entryPerimeter=0;dashed=1;endArrow=block;endFill=0;" edge="1" parent="1" source="7oO15L-JbmcVKD_Apaax-7" target="_L71OMCPzxAsusVBg9Zg-49">
          <mxGeometry relative="1" as="geometry" />
        </mxCell>
      </root>
    </mxGraphModel>
  </diagram>
</mxfile>
